<?xml version="1.0" encoding="utf-8"?>
<!-- Generator: Adobe Illustrator 21.1.0, SVG Export Plug-In . SVG Version: 6.00 Build 0)  -->
<svg version="1.1" id="Capa_1" xmlns="http://www.w3.org/2000/svg" xmlns:xlink="http://www.w3.org/1999/xlink" x="0px" y="0px"
	 viewBox="0 0 561 176" style="enable-background:new 0 0 561 176;" xml:space="preserve">
<style type="text/css">
	.st0{fill:#1874C2;}
	.st1{fill:url(#SVGID_1_);}
	.st2{fill:url(#SVGID_2_);}
	.st3{fill:#015F9B;}
	.st4{fill:url(#SVGID_3_);}
	.st5{fill:#CCD1D9;}
	.st6{fill:#17B5F0;}
</style>
<g>
	<g>
		<path class="st0" d="M219.4,40.4c2-5.2,5.7-7.8,11-7.8c5.5,0,9.2,2.6,11.1,7.7l24.8,63.4c2,5.1-0.5,9.4-5.1,10.9
			c-5,1.5-8.6-0.3-10.8-5.7l-4.3-10.4h-31.4l-4.2,10.4c-2,5.2-6.3,7.1-10.8,5.7c-4.6-1.5-7.1-5.8-5.1-10.9L219.4,40.4z M230.5,56.5
			l-10.1,26.6h20.2L230.5,56.5z"/>
		<path class="st0" d="M309,107.1c0,4.3-3.1,7.5-8.8,7.5h-1.5c-13.2,0-19.8-6.7-19.8-20.3V72.7h-2.1c-5.1,0-8.2-3.2-8.2-7.5
			s3.1-7.7,8.2-7.7h2.1v-7.7c-0.7-11.6,17.2-11.6,16.4,0v7.7h5.6c5.1,0,8.2,3.4,8.2,7.7s-3.1,7.5-8.2,7.5h-5.6v19.6
			c0,4.8,2,6.6,5.8,7C306.2,99.9,309,102.8,309,107.1z"/>
		<path class="st0" d="M355.4,107.1c0,4.3-3.1,7.5-8.8,7.5h-1.5c-13.2,0-19.8-6.7-19.8-20.3V72.7h-2.1c-5.1,0-8.2-3.2-8.2-7.5
			s3.1-7.7,8.2-7.7h2.1v-7.7c-0.7-11.6,17.2-11.6,16.4,0v7.7h5.6c5.1,0,8.2,3.4,8.2,7.7s-3.1,7.5-8.2,7.5h-5.6v19.6
			c0,4.8,2,6.6,5.8,7C352.6,99.9,355.4,102.8,355.4,107.1z"/>
		<path class="st0" d="M374.8,31.8c5.5,0,9.6,4.2,9.6,9.6c0,5.2-4.4,9.5-9.6,9.5s-9.5-4.3-9.5-9.5C365.3,35.9,369.6,31.8,374.8,31.8
			z M374.8,115c-4.8,0-8.2-3.4-8.2-8.8V65.8c0-5.5,3.5-8.8,8.2-8.8s8.2,3.4,8.2,8.8v40.4C383.1,111.6,379.6,115,374.8,115z"/>
		<path class="st0" d="M397.8,65.8c0-5.5,3.6-8.8,8.2-8.8c3.8,0,6.4,1.7,7.7,5.1c3.4-3.9,8.1-5.9,14-5.9c6.6,0,11.8,2.3,15.8,6.8
			c4.5-4.5,10.2-6.8,17.1-6.8c15.2,0,23.8,9.1,23.8,25.2v24.8c0.7,11.6-17.2,11.6-16.5,0V82c0-6.4-3-10.6-8.7-10.6
			c-6.2,0-9.9,4.8-9.9,12.6v22c0.7,11.6-17.2,11.6-16.5,0V82c0-6.4-3-10.6-8.7-10.6c-6.5,0-9.9,5-9.9,13.8v20.9
			c0.7,11.6-17.2,11.6-16.5,0V65.8z"/>
		<path class="st0" d="M494.6,86c0-8.5,2.9-15.5,8.6-21.2c5.8-5.7,13-8.6,21.5-8.6s15.7,2.9,21.4,8.6c5.8,5.7,8.7,12.8,8.7,21.2
			c0,8.5-2.9,15.5-8.6,21.2c-5.7,5.7-12.9,8.5-21.5,8.5s-15.8-2.8-21.5-8.5C497.5,101.5,494.6,94.4,494.6,86z M511.5,86
			c0,4.2,1.3,7.7,3.7,10.3c2.4,2.7,5.7,4.1,9.5,4.1s7.1-1.4,9.5-4.1c2.4-2.7,3.7-6.1,3.7-10.3s-1.3-7.7-3.7-10.3
			c-2.4-2.7-5.7-4.1-9.5-4.1s-7.1,1.4-9.5,4.1S511.5,81.8,511.5,86z"/>
	</g>
</g>
<linearGradient id="SVGID_1_" gradientUnits="userSpaceOnUse" x1="116.9564" y1="66.8207" x2="53.1266" y2="102.2218">
	<stop  offset="1.769549e-02" style="stop-color:#2E9FFF"/>
	<stop  offset="4.947791e-02" style="stop-color:#2995F1"/>
	<stop  offset="0.1404" style="stop-color:#1D7DCF"/>
	<stop  offset="0.1895" style="stop-color:#1874C2"/>
</linearGradient>
<path class="st1" d="M133.2,99.7l-36.1-63c-5.9-10.4-21.4-10.4-27.4,0l-18,31.4c6.5-9,20.8-8.6,26.5,1.3l30,52.4h11.2
	C131.4,121.9,138.9,109.7,133.2,99.7z"/>
<linearGradient id="SVGID_2_" gradientUnits="userSpaceOnUse" x1="95.4044" y1="120.4945" x2="55.9808" y2="70.9033">
	<stop  offset="0" style="stop-color:#2E9FFF"/>
	<stop  offset="7.940616e-02" style="stop-color:#4AAFFE"/>
	<stop  offset="0.1892" style="stop-color:#6AC1FC"/>
	<stop  offset="0.3034" style="stop-color:#82CFFB"/>
	<stop  offset="0.4226" style="stop-color:#94D9FA"/>
	<stop  offset="0.5496" style="stop-color:#9FDFF9"/>
	<stop  offset="0.6984" style="stop-color:#A2E1F9"/>
</linearGradient>
<path class="st2" d="M73.1,78.4L98,121.9h2L74.2,76.8c-5.9-10.3-21.4-10.4-27.3-0.1C53.4,68.1,67.5,68.6,73.1,78.4z"/>
<g>
	<path class="st3" d="M78.3,69.4c-5.7-9.9-20-10.3-26.5-1.3L47,76.5c6.1-10,21.3-9.9,27.2,0.3l25.8,45.1h8.3L78.3,69.4z"/>
	<path class="st3" d="M46.9,76.7l-0.1,0.2c0,0,0,0,0,0C46.9,76.7,46.9,76.7,46.9,76.7C47,76.6,46.9,76.6,46.9,76.7z"/>
</g>
<linearGradient id="SVGID_3_" gradientUnits="userSpaceOnUse" x1="92.3235" y1="116.9226" x2="41.0267" y2="89.6571">
	<stop  offset="0.154" style="stop-color:#2E9FFF"/>
	<stop  offset="0.257" style="stop-color:#34A2FF"/>
	<stop  offset="0.3889" style="stop-color:#44ABFE"/>
	<stop  offset="0.5366" style="stop-color:#5EBAFD"/>
	<stop  offset="0.6946" style="stop-color:#82CFFB"/>
	<stop  offset="0.8115" style="stop-color:#A2E1F9"/>
</linearGradient>
<path class="st4" d="M33.7,99.7c-5.7,10,1.8,22.2,13.7,22.2H98L73.1,78.4c-5.6-9.8-19.7-10.3-26.3-1.7c0,0,0,0.1-0.1,0.1L33.7,99.7z
	"/>
<path class="st5" d="M112.1,5.2c-2.1,0-4,1-5.3,2.5c-0.1,0-0.1-0.1-0.2-0.1c-7.4-2.2-15.2-3.4-23-3.4C39.6,4.2,3.8,40,3.8,83.9
	c0,13.4,3.4,26.7,9.8,38.3c0.4,0.7,1.1,1.1,1.9,1.1c0.3,0,0.7-0.1,1-0.3c1-0.6,1.4-1.8,0.8-2.9C11.2,109.2,8,96.6,8,83.9
	C8,42.3,41.9,8.4,83.6,8.4c7.4,0,14.7,1.1,21.7,3.2c0,0.2,0,0.3,0,0.5c0,3.8,3.1,6.9,6.9,6.9c3.8,0,6.9-3.1,6.9-6.9
	C118.9,8.3,115.9,5.2,112.1,5.2z M112.1,15.5c-1.9,0-3.4-1.5-3.4-3.4s1.5-3.4,3.4-3.4s3.4,1.5,3.4,3.4S114,15.5,112.1,15.5z"/>
<path class="st5" d="M151.3,126c7.9-12.6,12.1-27.2,12.1-42.1c0-26.4-13.1-51.1-35.1-66c-1-0.7-2.3-0.4-2.9,0.6
	c-0.7,1-0.4,2.3,0.6,2.9c20.8,14.1,33.2,37.5,33.2,62.5c0,14.1-4,27.9-11.4,39.9c0,0,0,0.1-0.1,0.1c-0.6-0.1-1.1-0.2-1.7-0.2
	c-3.8,0-6.9,3.1-6.9,6.9s3.1,6.9,6.9,6.9s6.9-3.1,6.9-6.9c0-1.7-0.6-3.2-1.6-4.4C151.2,126.1,151.2,126.1,151.3,126z M145.9,134
	c-1.9,0-3.4-1.5-3.4-3.4s1.5-3.4,3.4-3.4s3.4,1.5,3.4,3.4S147.8,134,145.9,134z"/>
<path class="st5" d="M136.2,141c-0.8-0.9-2.1-1-3-0.2c-13.8,12-31.4,18.6-49.6,18.6c-20.2,0-39.3-7.9-53.6-22.3
	c-0.1-0.1-0.2-0.2-0.3-0.3c0.5-0.9,0.8-2,0.8-3.1c0-3.8-3.1-6.9-6.9-6.9c-3.8,0-6.9,3.1-6.9,6.9c0,3.8,3.1,6.9,6.9,6.9
	c1.1,0,2.2-0.3,3.2-0.8c0.1,0.1,0.1,0.2,0.2,0.3c15.1,15.2,35.2,23.5,56.6,23.5c19.3,0,37.9-7,52.4-19.7
	C136.8,143.2,136.9,141.9,136.2,141z M23.6,137.2c-1.9,0-3.4-1.5-3.4-3.4c0-1.9,1.5-3.4,3.4-3.4s3.4,1.5,3.4,3.4
	C27,135.6,25.5,137.2,23.6,137.2z"/>
<g>
	<g>
		<path class="st6" d="M387.1,131.1c-5.7,0-10,3.1-10,7.5c0,4.1,3.1,6.7,9.3,7.7l4.3,0.7c8.5,1.5,13.3,5.7,13.3,12.5
			c0,3.6-1.4,6.5-4.4,8.8c-2.9,2.3-6.8,3.5-11.6,3.5c-6.8,0-12.2-2.9-15.5-6.4c-1.2-1.3-1.2-2.5-0.1-3.6c1.2-1.1,2.4-0.9,3.6,0.4
			c3.1,3.4,7.2,5.1,12.5,5.1c6.2,0,10.7-2.9,10.7-7.8c0-4.2-3.1-6.8-9.2-7.9l-5.4-0.9c-3.6-0.6-6.5-1.9-8.9-3.9
			c-2.3-2-3.5-4.7-3.5-8c0-3.7,1.5-6.6,4.5-8.8c3-2.2,6.5-3.3,10.6-3.3c5.7,0,10.3,1.8,13.8,5.4c1.2,1.3,1.2,2.5,0.1,3.6
			c-1.1,0.9-2.2,0.8-3.6-0.4C394.9,132.4,391.4,131.1,387.1,131.1z"/>
		<path class="st6" d="M425,144.1c-3.1,0-5.7,1.1-7.7,3.4c-2.1,2.2-3.1,5-3.1,8.3c0,6.8,4.2,11.7,11,11.7c2.9,0,5.4-1.1,7.4-3.1
			c1.2-1.2,2.3-1.2,3.4-0.1c0.9,1.1,0.8,2.2-0.3,3.3c-2.9,2.8-6.5,4.2-10.9,4.2c-4.4,0-8-1.6-11-4.6c-2.9-3.1-4.4-6.9-4.4-11.4
			s1.5-8.2,4.5-11.3c3.1-3.2,6.7-4.7,11-4.7c4.1,0,7.5,1.3,10,3.9c1.1,1.1,1.2,2.2,0.3,3.3c-0.9,0.9-2.1,0.9-3.4-0.1
			C429.8,145,427.5,144.1,425,144.1z"/>
		<path class="st6" d="M468.8,168.8c0,1.7-0.9,2.6-2.2,2.6c-1.4,0-2.2-0.9-2.2-2.6v-1.6c-2.4,3-5.6,4.5-9.5,4.5
			c-7.7,0-11.7-4.8-11.7-13.5v-15.4c0-1.7,0.7-2.6,2.3-2.6c1.6,0,2.3,0.9,2.3,2.6v15.8c0,5.7,2.7,8.8,7.7,8.8
			c5.8,0,8.7-3.9,8.7-11.8v-12.8c0-1.7,0.7-2.6,2.3-2.6c1.6,0,2.3,0.9,2.3,2.6V168.8z"/>
		<path class="st6" d="M481.4,167.1c-2.9-3.1-4.4-6.9-4.4-11.4s1.4-8.2,4.4-11.3c2.9-3.1,6.6-4.7,11-4.7c4.4,0,8,1.6,11,4.7
			c3,3.1,4.5,6.9,4.5,11.3s-1.5,8.2-4.4,11.4c-2.9,3.1-6.6,4.6-11,4.6C488,171.7,484.3,170.2,481.4,167.1z M500,164.1
			c2-2.2,3-5.1,3-8.4c0-3.3-1-6.1-3-8.3c-2-2.2-4.6-3.4-7.7-3.4c-3.1,0-5.6,1.1-7.6,3.4c-2,2.2-3,5-3,8.3c0,3.3,1,6.1,3,8.4
			c2,2.2,4.6,3.3,7.6,3.3C495.5,167.4,498,166.3,500,164.1z"/>
		<path class="st6" d="M520.6,168.7c0,1.7-0.7,2.6-2.3,2.6c-1.6,0-2.3-0.9-2.3-2.6v-39.1c0-1.7,1-2.6,2.3-2.6c1.6,0,2.3,0.9,2.3,2.6
			V168.7z"/>
		<path class="st6" d="M530.6,147.6c-0.9-0.8-1-2,0.1-3.2c2.5-2.7,6.6-4.7,10.5-4.7c7.3,0,11.7,4.2,11.7,12v17.1
			c0,3.4-4.5,3.4-4.5,0v-1.2c-2.1,2.3-5.7,4.1-9.8,4.1c-5.7,0-10-3.4-10-9c0-5.4,4.6-8.9,11.3-9.6l8.4-1v-0.9c0-4.7-2.7-7.2-7.1-7.2
			c-2.6,0-5,1.1-7.4,3.2C532.6,148.3,531.5,148.5,530.6,147.6z M538.8,167.6c3.8,0,7.6-2.1,9.4-4.9v-6.3l-8.1,1
			c-4.6,0.6-6.9,2.4-6.9,5.4C533.2,165.7,535.4,167.6,538.8,167.6z"/>
	</g>
</g>
</svg>
